<?xml version="1.0" ?><!DOCTYPE svg  PUBLIC '-//W3C//DTD SVG 1.1//EN'  'http://www.w3.org/Graphics/SVG/1.1/DTD/svg11.dtd'><svg enable-background="new 0 0 128 128" height="128px" id="Layer_1" version="1.1" viewBox="0 0 128 128" width="128px" xml:space="preserve" xmlns="http://www.w3.org/2000/svg" xmlns:xlink="http://www.w3.org/1999/xlink"><path d="M123.1,41.4c-0.2-2.2-1.9-5.1-4-6.4L96.2,21.4c-2-1.2-4.9-1.9-7.5-1.9c-1.4,0-2.7,0.2-3.8,0.6L7.4,51.2  c-3.1,1.2-4.3,5.4-2.8,9l18.3,45.6c1.2,2.9,3.8,4.8,6.4,4.8c0.6,0,1.3-0.1,1.9-0.4l77.4-31.2c3.1-1.2,6.3-5.2,7.3-8.7l7.1-25.1v0  C123,45.4,123.4,43.5,123.1,41.4z M119.1,44.4L112,69.3c-0.7,2.6-3.2,5.4-4.9,6l-77.4,31.2c-0.1,0-0.2,0.1-0.4,0.1  c-0.9,0-2.1-0.9-2.7-2.3L8.3,58.7C7.6,57,8.2,55.3,8.9,55l77.4-31.2c0.5-0.2,1.4-0.3,2.3-0.3c2,0,4.1,0.5,5.5,1.3l22.9,13.6  c1,0.6,2,2.3,2.1,3.4C119.3,43,119.1,44.1,119.1,44.4z" fill="#2C3E50"/><path d="M96.2,38.3c-6.2,0-11.2,5-11.2,11.2c0,6.2,5,11.2,11.2,11.2c6.2,0,11.2-5,11.2-11.2  C107.5,43.4,102.5,38.3,96.2,38.3z M96.2,56.8c-4,0-7.2-3.3-7.2-7.2s3.3-7.2,7.2-7.2s7.2,3.3,7.2,7.2S100.2,56.8,96.2,56.8z" fill="#3B97D3"/><path d="M28,74.7c-0.4,0-0.8-0.2-0.9-0.6c-0.2-0.5,0-1.1,0.6-1.3l43-17c0.5-0.2,1.1,0,1.3,0.6c0.2,0.5,0,1.1-0.6,1.3  l-43,17C28.2,74.6,28.1,74.7,28,74.7z" fill="#3B97D3"/><path d="M31,82.3c-0.4,0-0.8-0.2-0.9-0.6c-0.2-0.5,0-1.1,0.6-1.3l43-17c0.5-0.2,1.1,0,1.3,0.6c0.2,0.5,0,1.1-0.6,1.3  l-43,17C31.2,82.3,31.1,82.3,31,82.3z" fill="#3B97D3"/><path d="M34,90c-0.4,0-0.8-0.2-0.9-0.6c-0.2-0.5,0-1.1,0.6-1.3l43-17c0.5-0.2,1.1,0,1.3,0.6c0.2,0.5,0,1.1-0.6,1.3  l-43,17C34.2,90,34.1,90,34,90z" fill="#3B97D3"/><path d="M24,67c-0.4,0-0.8-0.2-0.9-0.6c-0.2-0.5,0-1.1,0.6-1.3l43-17c0.5-0.2,1.1,0,1.3,0.6c0.2,0.5,0,1.1-0.6,1.3  l-43,17C24.2,67,24.1,67,24,67z" fill="#3B97D3"/></svg>