<svg height="128" viewBox="0 0 128 128" width="128" xmlns="http://www.w3.org/2000/svg"><path d="M123.1 41.4c-.2-2.2-1.9-5.1-4-6.4L96.2 21.4c-2-1.2-4.9-1.9-7.5-1.9-1.4 0-2.7.2-3.8.6L7.4 51.2c-3.1 1.2-4.3 5.4-2.8 9l18.3 45.6c1.2 2.9 3.8 4.8 6.4 4.8.6 0 1.3-.1 1.9-.4L108.6 79c3.1-1.2 6.3-5.2 7.3-8.7l7.1-25.1c0 .2.4-1.7.1-3.8zm-4 3L112 69.3c-.7 2.6-3.2 5.4-4.9 6l-77.4 31.2c-.1 0-.2.1-.4.1-.9 0-2.1-.9-2.7-2.3L8.3 58.7c-.7-1.7-.1-3.4.6-3.7l77.4-31.2c.5-.2 1.4-.3 2.3-.3 2 0 4.1.5 5.5 1.3L117 38.4c1 .6 2 2.3 2.1 3.4.2 1.2 0 2.3 0 2.6z" fill="#2C3E50"/><path d="M96.2 38.3c-6.2 0-11.2 5-11.2 11.2 0 6.2 5 11.2 11.2 11.2 6.2 0 11.2-5 11.2-11.2.1-6.1-4.9-11.2-11.2-11.2zm0 18.5c-4 0-7.2-3.3-7.2-7.2s3.3-7.2 7.2-7.2 7.2 3.3 7.2 7.2-3.2 7.2-7.2 7.2zM28 74.7c-.4 0-.8-.2-.9-.6-.2-.5 0-1.1.6-1.3l43-17c.5-.2 1.1 0 1.3.6.2.5 0 1.1-.6 1.3l-43 17c-.2-.1-.3 0-.4 0zM31 82.3c-.4 0-.8-.2-.9-.6-.2-.5 0-1.1.6-1.3l43-17c.5-.2 1.1 0 1.3.6.2.5 0 1.1-.6 1.3l-43 17H31zM34 90c-.4 0-.8-.2-.9-.6-.2-.5 0-1.1.6-1.3l43-17c.5-.2 1.1 0 1.3.6.2.5 0 1.1-.6 1.3l-43 17H34zM24 67c-.4 0-.8-.2-.9-.6-.2-.5 0-1.1.6-1.3l43-17c.5-.2 1.1 0 1.3.6.2.5 0 1.1-.6 1.3l-43 17H24z" fill="#3B97D3"/></svg>